<svg width="200" height="200" viewBox="0 0 200 200" fill="none" xmlns="http://www.w3.org/2000/svg">
<circle cx="100" cy="100" r="100" fill="#695A4D"/>
<path d="M113.686 137.06C113.26 135.172 113.841 133.331 115.28 132.012C117.201 130.25 118.85 128.168 120.181 125.824C121.078 124.244 121.757 122.576 122.228 120.866C121.987 118.058 120.87 115.324 118.83 113.358C116.978 111.574 114.813 110.837 112.279 110.904C109.998 110.964 108.43 111.883 106.366 112.694C106.086 112.806 105.803 112.911 105.517 113.009C105.232 113.108 104.944 113.196 104.653 113.28C104.363 113.363 104.071 113.437 103.777 113.505C103.483 113.573 103.187 113.631 102.89 113.684C102.593 113.738 102.295 113.782 101.996 113.818C101.696 113.856 101.396 113.884 101.096 113.906C100.795 113.927 100.494 113.941 100.192 113.947C99.8908 113.953 99.5894 113.951 99.288 113.941C98.8954 113.927 98.5037 113.896 98.1131 113.852C97.7225 113.808 97.334 113.75 96.9475 113.678C96.5611 113.607 96.1778 113.521 95.7974 113.421C95.4171 113.32 95.0407 113.206 94.6685 113.079C91.9283 112.126 89.3862 110.516 86.3611 110.813C83.7496 111 81.445 112.142 79.725 114.153C79.6685 114.22 79.6128 114.286 79.5579 114.354C79.5027 114.422 79.4486 114.491 79.3953 114.561C79.3419 114.629 79.2896 114.699 79.2378 114.77C79.1863 114.84 79.1355 114.912 79.0855 114.984C79.0356 115.055 78.9866 115.127 78.9384 115.201C78.8902 115.273 78.843 115.348 78.7966 115.422C78.7502 115.496 78.7048 115.57 78.6602 115.647C78.6156 115.721 78.5717 115.797 78.5291 115.874C78.4863 115.95 78.4446 116.026 78.4036 116.104C78.3627 116.183 78.3229 116.259 78.2838 116.339C78.2448 116.418 78.2067 116.496 78.1696 116.574C78.1325 116.654 78.0964 116.735 78.0611 116.815C78.026 116.895 77.9919 116.976 77.9586 117.056C77.9255 117.138 77.8932 117.218 77.8621 117.301C77.8307 117.383 77.8004 117.465 77.7712 117.548C77.7675 117.56 77.7641 117.57 77.7605 117.58C78.0393 119.794 78.6489 122 79.6108 124.111C80.4518 125.956 81.6195 127.785 83.1807 129.698C84.9391 131.853 85.0531 134.67 83.4716 136.874C83.2336 137.205 82.9633 137.502 82.6685 137.767C82.8737 138.207 83.0726 138.648 83.2574 139.096C83.6242 139.985 83.952 140.91 84.1929 141.844C84.4027 142.657 84.5534 143.486 84.7938 144.291C86.2336 149.11 88.6405 154.002 92.4709 157.338C93.0243 157.82 94.3473 159.034 95.084 158.984C95.3485 158.968 95.6098 158.805 95.7653 158.59C95.8934 158.416 95.9237 158.173 95.9368 157.96C95.9735 157.364 95.8954 156.74 95.8682 156.142C95.8395 155.361 95.8488 154.58 95.8964 153.799C96.1082 150.768 97.2347 144.744 100.058 143.056C102.013 144.224 102.989 147.312 103.525 149.409C104.012 151.32 104.208 153.335 104.191 155.306C104.194 156.115 103.818 158.181 104.35 158.751C104.499 158.912 104.685 158.994 104.902 159C105.918 159.02 107.894 157.039 108.608 156.288C111.456 153.297 113.378 149.265 114.69 145.362C115.237 143.735 115.715 142.083 116.265 140.457C114.946 139.764 114.028 138.572 113.686 137.06Z" fill="white"/>
<path d="M111.75 81.8709C109.563 88.3039 102.76 91.8495 96.2628 89.6657C89.756 87.475 86.3859 80.3224 88.5372 73.8689C90.6639 67.486 97.7889 63.8904 104.115 66.204C110.554 68.2534 113.884 75.5905 111.75 81.8709ZM111.248 61.9161V41.9999H89.5288V61.6451C86.0622 63.9496 83.3007 67.3722 81.9066 71.5553C78.5249 81.7047 83.8221 92.9471 94.0515 96.3856C104.265 99.8219 114.96 94.2473 118.396 84.1344C121.163 75.9913 118.088 66.7232 111.248 61.9161Z" fill="white"/>
<path d="M84.7853 94.2222C81.449 91.3546 78.9667 87.8709 77.5213 83.6638C77.2468 82.8653 77.2418 82.8491 76.5982 83.4652C67.9034 91.7883 63.914 101.96 65.2539 114.036C66.2015 122.576 69.954 129.76 76.399 135.438C76.8376 135.825 77.2832 136.198 77.7213 136.328C79.1575 136.855 80.5925 136.431 81.3795 135.335C82.274 134.089 82.2137 132.622 81.1867 131.363C79.6388 129.466 78.285 127.45 77.2628 125.204C72.4106 114.553 75.439 101.797 84.7548 95.3368C85.4093 94.8808 85.3158 94.6782 84.7853 94.2222Z" fill="white"/>
<path d="M129.764 91.4177C128.044 88.56 125.94 86.01 123.463 83.7797C123.072 83.4256 122.881 83.294 122.633 83.9518C121.129 87.9245 118.848 91.363 115.597 94.0993C115.084 94.5303 114.995 94.7752 115.638 95.1638C116.612 95.7467 117.481 96.4874 118.3 97.2848C126.212 104.971 127.924 117.44 122.423 127.126C120.967 129.69 119.178 131.967 117.017 133.949C116.268 134.637 115.986 135.495 116.207 136.476C116.43 137.462 117.06 138.089 118.043 138.369C118.971 138.63 119.736 138.312 120.486 137.802C126.651 133.613 130.833 127.899 133.004 121.526C134.271 117.721 134.848 114.534 134.973 111.269C135.247 104.115 133.431 97.5094 129.764 91.4177Z" fill="white"/>
</svg>
