<svg width="200" height="200" viewBox="0 0 200 200" fill="none" xmlns="http://www.w3.org/2000/svg">
<circle cx="100" cy="100" r="100" fill="#695A4D"/>
<path d="M143.994 61.715C143.873 55.84 141.693 49.973 137.348 45.8733C133.777 42.5019 129.604 41.1128 124.719 41.2401C120.323 41.3516 117.3 43.087 113.322 44.6195C112.782 44.8304 112.237 45.0294 111.686 45.2125C111.135 45.3956 110.58 45.5667 110.02 45.722C109.461 45.8772 108.898 46.0205 108.331 46.1479C107.764 46.2752 107.194 46.3867 106.622 46.4862C106.049 46.5857 105.475 46.6693 104.897 46.741C104.32 46.8086 103.742 46.8643 103.162 46.9041C102.583 46.9439 102.002 46.9718 101.421 46.9837C100.84 46.9917 100.259 46.9917 99.6778 46.9718C98.9209 46.944 98.166 46.8882 97.4131 46.8046C96.6602 46.721 95.9112 46.6136 95.1663 46.4782C94.4217 46.3429 93.6823 46.1797 92.9492 45.9887C92.2162 45.8016 91.4907 45.5866 90.7732 45.3438C85.4912 43.5447 80.591 40.5038 74.7593 41.069C69.7255 41.4232 65.2831 43.5766 61.9679 47.3698C61.8585 47.4972 61.7511 47.6246 61.6453 47.7519C61.5391 47.8793 61.4349 48.0107 61.3319 48.142C61.2293 48.2694 61.1279 48.4047 61.0284 48.5361C60.929 48.6714 60.8312 48.8067 60.7349 48.9421C60.6387 49.0774 60.544 49.2127 60.4513 49.352C60.3582 49.4874 60.2672 49.6267 60.1777 49.77C60.0886 49.9093 60.0007 50.0486 59.9148 50.1919C59.8289 50.3352 59.7445 50.4745 59.6622 50.6218C59.5799 50.7651 59.4991 50.9123 59.4204 51.0596C59.3416 51.2029 59.2648 51.3502 59.1895 51.4975C59.1143 51.6447 59.0408 51.796 58.9694 51.9472C58.8979 52.0945 58.8283 52.2457 58.7605 52.397C58.6927 52.5483 58.6267 52.7035 58.5627 52.8547C58.4987 53.01 58.4365 53.1612 58.3764 53.3165C58.3162 53.4717 58.2579 53.6269 58.2015 53.7821C58.145 53.9374 58.0907 54.0966 58.038 54.2519C57.9855 54.4111 57.9348 54.5703 57.8864 54.7255C57.8377 54.8847 57.7911 55.0439 57.7464 55.2031C57.7015 55.3623 57.6591 55.5256 57.618 55.6848C57.5775 55.848 57.5387 56.0072 57.5018 56.1703C57.465 56.3296 57.4303 56.4928 57.3974 56.656C57.3647 56.8191 57.3339 56.9823 57.3053 57.1455C57.2765 57.3087 57.2499 57.4719 57.2251 57.6351C57.2003 57.7983 57.1777 57.9655 57.157 58.1287C57.1363 58.2919 57.1179 58.4591 57.1011 58.6223C57.0845 58.7894 57.0698 58.9526 57.0574 59.1198C57.0451 59.283 57.0344 59.4501 57.0262 59.6133C57.0178 59.7805 57.0113 59.9477 57.007 60.1109C57.0027 60.278 57.0002 60.4452 57 60.6084C56.9998 60.7756 57.0013 60.9428 57.0054 61.106C57.0093 61.2731 57.0151 61.4403 57.023 61.6035C57.0311 61.7707 57.041 61.9339 57.0529 62.101C57.6692 70.404 61.1601 78.6473 64.739 86.0825C66.0829 88.8767 67.5733 91.6112 68.7769 94.4651C69.484 96.1448 70.1157 97.8922 70.5802 99.6515C70.7493 100.292 70.898 100.941 71.048 101.586H77.9042V83.4874H96.1137V93.1954C96.1137 95.2174 97.7723 96.8573 99.8115 96.8573H101.188C103.227 96.8573 104.886 95.2174 104.886 93.1954V83.4874H123.095V101.586H130.908C131.763 98.9072 132.623 96.2324 133.665 93.6173C134.862 90.6122 136.32 87.7384 137.667 84.8009C140.952 77.6363 144.159 69.7194 143.994 61.715Z" fill="white"/>
<path d="M108.21 86.7808V93.1941C108.21 97.0347 105.066 100.151 101.189 100.151H99.812C95.9347 100.151 92.7913 97.0347 92.7913 93.1941V86.7808H81.2278V114.156H119.773V86.7808H108.21Z" fill="white"/>
<path d="M100.546 116.252H100.454H86.067L86.7158 121.799H114.284L114.933 116.252H100.546ZM90.44 153.633H110.56L111.006 149.815H89.9931L90.44 153.633ZM91.1848 160H100.454H100.546H109.815L110.188 156.818H90.8127L91.1848 160ZM87.684 130.079H113.316L113.911 124.984H87.0882L87.684 130.079ZM88.6522 138.354H112.347L112.943 133.26H88.0564L88.6522 138.354ZM89.6208 146.63H111.379L111.975 141.536H89.0249L89.6208 146.63Z" fill="white"/>
</svg>
