<svg width="200" height="200" viewBox="0 0 200 200" fill="none" xmlns="http://www.w3.org/2000/svg">
<circle cx="100" cy="100" r="100" fill="#695A4D"/>
<path d="M132.819 111.823C116.884 114.373 99.1309 98.7753 103.991 80.1051C104.637 77.6314 105.314 75.1398 106.453 72.8382C107.903 69.901 110.477 67.1494 112.908 64.9827C115.666 62.5265 118.847 61.4822 122.32 60.4399C126.984 59.0416 131.788 58.8031 136.419 60.4829C131.918 54.7647 126.339 53.5758 120.252 54.1369C114.097 54.7022 108.702 57.6334 103.272 60.3106C101.57 61.1517 100.136 61.2768 98.386 60.432C94.8824 58.7423 91.2881 57.2305 87.6967 55.729C75.8461 50.7697 65.1681 57.2305 60.9762 65.5907C58.3733 70.777 57.634 76.288 58.158 81.9866C58.6565 87.38 60.118 92.5153 62.7096 97.3065C65.474 102.416 67.0601 107.7 66.3633 113.685C65.8139 118.396 66.1424 123.183 66.7882 127.925C68.0571 137.261 71.708 145.355 78.8994 151.644C80.4119 152.968 82.0801 154.21 84.2837 153.318C86.6742 152.354 87.9743 150.49 88.1442 147.94C88.3028 145.611 88.3595 143.272 88.3878 140.939C88.4473 135.48 88.6795 130.027 89.7303 124.659C90.6735 119.864 92.067 115.233 95.8822 111.788C99.0177 108.958 101.989 109.018 105.019 112.022C106.699 113.688 107.928 115.671 108.826 117.858C110.746 122.547 111.84 127.415 112.015 132.485C112.191 137.676 112.316 142.868 112.599 148.05C112.746 150.676 114.196 152.612 116.615 153.666C118.906 154.664 120.637 153.226 122.246 151.961C124.512 150.179 126.2 147.854 127.678 145.392C133.635 135.476 135.677 124.691 134.921 113.25C134.807 111.561 134.179 111.606 132.819 111.823Z" fill="white"/>
<path d="M143.165 89.5389H133.671V99.0235H125.817V89.5389H116.327V81.6931H125.817V72.2103H133.671V81.6931H143.165V89.5389ZM129.762 63.0055C116.83 63.7564 108.203 71.5984 107.492 85.696C107.498 97.985 117.475 108.33 129.249 108.26C141.862 108.181 152.064 98.0593 152 85.6902C151.935 73.3035 141.727 62.3092 129.762 63.0055Z" fill="white"/>
</svg>
