<svg width="200" height="200" viewBox="0 0 200 200" fill="none" xmlns="http://www.w3.org/2000/svg">
<circle cx="100" cy="100" r="100" fill="#695A4D"/>
<path d="M145.994 81.3888C145.866 75.1594 143.585 68.93 139.044 64.5822C135.305 61.0026 130.942 59.5329 125.83 59.6665C121.234 59.7834 118.071 61.6261 113.912 63.2516C113.348 63.4743 112.777 63.6859 112.201 63.8807C111.625 64.0755 111.044 64.2537 110.457 64.4207C109.87 64.5877 109.283 64.738 108.69 64.8716C108.098 65.0108 107.5 65.1277 106.901 65.2335C106.303 65.3392 105.705 65.4283 105.096 65.5007C104.492 65.5731 103.889 65.6343 103.285 65.6788C102.676 65.7178 102.072 65.7456 101.463 65.7568C100.854 65.7735 100.25 65.7679 99.6413 65.7456C98.8493 65.7178 98.0574 65.6565 97.271 65.5675C96.4846 65.484 95.6982 65.3671 94.9229 65.2224C94.1421 65.0776 93.3667 64.905 92.6025 64.7046C91.8383 64.5042 91.0796 64.2759 90.3265 64.0199C84.7996 62.1104 79.677 58.8871 73.5742 59.4828C68.3132 59.8558 63.6668 62.1438 60.1946 66.1687C60.0838 66.3024 59.973 66.4415 59.8623 66.5751C59.7515 66.7087 59.6408 66.8479 59.53 66.987C59.4248 67.1262 59.3196 67.2654 59.2144 67.4046C59.1092 67.5493 59.0095 67.6941 58.9098 67.8332C58.8101 67.978 58.7104 68.1227 58.6107 68.273C58.5166 68.4178 58.4169 68.5625 58.3283 68.7128C58.2342 68.8631 58.14 69.0135 58.0514 69.1638C57.9628 69.3141 57.8742 69.4644 57.7856 69.6203C57.697 69.7706 57.6139 69.9264 57.5308 70.0823C57.4478 70.2382 57.3703 70.394 57.2927 70.5499C57.2152 70.7058 57.1377 70.8616 57.0601 71.0231C56.9881 71.1845 56.9161 71.3404 56.8441 71.5019C56.7721 71.6633 56.7057 71.8248 56.6337 71.9862C56.5728 72.1477 56.5063 72.3147 56.4399 72.4761C56.3789 72.6431 56.318 72.8101 56.2571 72.9715C56.1962 73.1385 56.1408 73.3055 56.0855 73.4726C56.0301 73.6396 55.9802 73.8066 55.9304 73.9736C55.875 74.1406 55.8307 74.3132 55.7809 74.4802C55.7366 74.6528 55.6923 74.8198 55.6479 74.9924C55.6036 75.165 55.5649 75.3319 55.5261 75.5045C55.4873 75.6771 55.4486 75.8497 55.4153 76.0223C55.3821 76.1948 55.3489 76.3674 55.3212 76.54C55.2935 76.7126 55.2658 76.8851 55.2381 77.0577C55.2104 77.2358 55.1883 77.4084 55.1661 77.5866C55.144 77.7591 55.1219 77.9317 55.1052 78.1099C55.0886 78.2824 55.0776 78.4606 55.0609 78.6331C55.0499 78.8113 55.0388 78.9839 55.0277 79.162C55.0222 79.3346 55.0166 79.5127 55.0056 79.6853C55.0056 79.8635 55 80.0416 55 80.2142C55 80.3923 55.0056 80.5705 55.0056 80.743C55.0111 80.9156 55.0166 81.0938 55.0222 81.2719C55.0332 81.4445 55.0443 81.6226 55.0554 81.7952C55.7033 90.6077 59.3528 99.35 63.0965 107.242C64.5031 110.204 66.0593 113.105 67.3164 116.133C68.0585 117.913 68.723 119.768 69.2048 121.635C69.6312 123.265 69.9303 124.925 70.4176 126.537C73.3195 136.192 78.1762 145.99 85.8961 152.672C87.0148 153.637 89.6785 156.072 91.1627 155.969C91.6998 155.934 92.2259 155.611 92.536 155.182C92.7963 154.828 92.8573 154.347 92.885 153.917C92.957 152.723 92.8019 151.473 92.7465 150.274C92.6856 148.71 92.7078 147.146 92.8019 145.584C93.2283 139.513 95.4989 127.445 101.192 124.065C105.135 126.405 107.101 132.589 108.181 136.791C109.166 140.617 109.56 144.657 109.526 148.602C109.532 150.223 108.773 154.361 109.848 155.503C110.147 155.823 110.518 155.991 110.961 155.999C113.004 156.042 116.992 152.074 118.431 150.571C124.174 144.577 128.051 136.502 130.692 128.685C132.21 124.205 133.456 119.637 135.189 115.231C136.441 112.046 137.964 108.993 139.376 105.877C142.809 98.2806 146.165 89.8784 145.994 81.3888Z" fill="white"/>
<path d="M90.7664 53.3251C92.6323 52.5075 96.0665 51.6471 97.3955 50.1882C97.9537 49.5683 98.3046 48.7667 98.6182 48.0026C99.1392 46.7254 99.522 45.3573 100.165 44.1389L100.24 43.9999C100.697 44.4595 101.606 47.3666 101.962 48.1736C103.413 51.4601 106.911 52.1976 110.005 53.3893C108.724 53.8702 107.443 54.3512 106.199 54.923C102.712 56.5315 101.654 59.6738 100.404 63.0458L100.261 63.0671C99.8144 62.3724 99.623 61.3571 99.304 60.5822C97.1563 55.3612 95.6784 55.3772 90.7664 53.3251Z" fill="white"/>
<path d="M115.245 50.9634C116.34 50.4842 118.355 49.9831 119.135 49.1227C119.466 48.7633 119.666 48.2895 119.85 47.8429C120.159 47.0914 120.386 46.2909 120.76 45.572L120.804 45.4903C121.074 45.7626 121.605 47.4726 121.817 47.941C122.667 49.8688 124.72 50.3045 126.535 51.0015C125.788 51.2847 125.035 51.5679 124.303 51.9056C122.255 52.8477 121.632 54.6939 120.901 56.6707L120.814 56.6816C120.554 56.2732 120.441 55.6796 120.256 55.2221C118.994 52.1615 118.127 52.167 115.245 50.9634Z" fill="white"/>
<path d="M73.1921 50.2664C74.286 49.784 76.3033 49.2809 77.0824 48.4251C77.4074 48.0621 77.6138 47.5901 77.7996 47.1441C78.104 46.392 78.331 45.5881 78.7076 44.8723L78.7489 44.7945C79.0224 45.0642 79.5538 46.7706 79.7602 47.2426C80.6115 49.172 82.665 49.6025 84.4811 50.3027C83.733 50.5879 82.9797 50.868 82.2522 51.2051C80.2039 52.1491 79.5796 53.9903 78.8469 55.9716L78.7644 55.9819C78.5013 55.5774 78.3877 54.981 78.202 54.5245C76.9431 51.4645 76.0711 51.4696 73.1921 50.2664Z" fill="white"/>
</svg>
