<svg width="200" height="200" viewBox="0 0 200 200" fill="none" xmlns="http://www.w3.org/2000/svg">
<circle cx="100" cy="100" r="100" fill="#695A4D"/>
<path d="M119.99 106.174H119.985H119.98C113.173 106.162 106.787 103.507 101.997 98.702C97.2204 93.9092 94.5792 87.5338 94.5589 80.7559C94.54 74.852 96.4884 69.2543 100.083 64.7348C99.7496 64.7858 99.4149 64.8339 99.0787 64.8759C98.5232 64.942 97.9676 64.996 97.4088 65.0351C96.8518 65.0741 96.293 65.1011 95.7342 65.1101C95.1754 65.1222 94.6163 65.1192 94.0575 65.1011C93.3291 65.0741 92.6019 65.017 91.8783 64.939C91.1549 64.8549 90.4331 64.7498 89.7179 64.6176C89.0011 64.4855 88.2894 64.3263 87.5844 64.1432C86.8796 63.96 86.1814 63.7497 85.4901 63.5155C80.4097 61.7617 75.6946 58.7978 70.0841 59.3473C65.2422 59.6927 60.9686 61.7918 57.7792 65.4885C57.6745 65.6116 57.5707 65.7348 57.4686 65.8609C57.3669 65.984 57.2664 66.1101 57.1674 66.2393C57.0687 66.3684 56.9712 66.4945 56.8751 66.6267C56.7797 66.7558 56.6855 66.8849 56.5931 67.0171C56.5003 67.1492 56.4097 67.2843 56.3202 67.4165C56.2308 67.5516 56.1431 67.6897 56.057 67.8249C55.9711 67.96 55.8871 68.0981 55.8042 68.2363C55.7216 68.3744 55.6406 68.5156 55.5613 68.6567C55.482 68.7978 55.4043 68.939 55.3286 69.0801C55.2526 69.2243 55.1787 69.3654 55.1063 69.5126C55.0342 69.6567 54.9633 69.8009 54.8945 69.945C54.826 70.0922 54.759 70.2393 54.6935 70.3865C54.6283 70.5336 54.5649 70.6837 54.5035 70.8339C54.4419 70.9841 54.3821 71.1342 54.324 71.2844C54.266 71.4315 54.2101 71.5847 54.1559 71.7378C54.1015 71.891 54.0491 72.0411 53.9986 72.1943C53.9483 72.3474 53.8996 72.5006 53.8526 72.6567C53.8059 72.8129 53.7611 72.9661 53.718 73.1222C53.6749 73.2784 53.6339 73.4345 53.5947 73.5907C53.5552 73.7498 53.5185 73.906 53.4829 74.0622C53.4476 74.2213 53.414 74.3805 53.3823 74.5366C53.3509 74.6958 53.3213 74.852 53.2935 75.0141C53.266 75.1733 53.2402 75.3325 53.2163 75.4916C53.193 75.6508 53.1708 75.8129 53.1511 75.9721C53.1311 76.1313 53.1134 76.2934 53.0973 76.4556C53.0814 76.6147 53.0673 76.7739 53.0554 76.9361C53.0431 77.0982 53.0332 77.2604 53.0249 77.4195C53.0171 77.5817 53.0108 77.7439 53.0066 77.906C53.0024 78.0652 53.0003 78.2274 53 78.3895C52.9997 78.5517 53.0012 78.7109 53.0051 78.873C53.009 79.0352 53.0144 79.1973 53.0222 79.3595C53.0296 79.5217 53.0395 79.6808 53.0509 79.843C53.6438 87.9361 57.0023 95.9663 60.4454 103.213C61.738 105.933 63.1718 108.597 64.3295 111.381C65.0098 113.017 65.6173 114.72 66.0642 116.435C66.4534 117.93 66.7331 119.456 67.1786 120.936C69.8481 129.804 74.3119 138.804 81.4154 144.943C82.4412 145.829 84.8956 148.063 86.2612 147.973C86.7521 147.94 87.2362 147.642 87.5251 147.249C87.7626 146.922 87.8189 146.48 87.8425 146.087C87.9107 144.991 87.7662 143.841 87.7154 142.741C87.6627 141.303 87.6795 139.868 87.768 138.432C88.1602 132.855 90.2494 121.771 95.4844 118.666C99.1092 120.816 100.922 126.495 101.914 130.357C102.819 133.87 103.181 137.579 103.149 141.207C103.154 142.693 102.459 146.495 103.444 147.543C103.721 147.838 104.066 147.991 104.468 148C106.352 148.036 110.017 144.393 111.341 143.012C116.621 137.507 120.187 130.093 122.619 122.909C124.013 118.795 125.162 114.6 126.753 110.552C127.589 108.432 128.555 106.375 129.517 104.315C126.533 105.525 123.312 106.168 119.99 106.174Z" fill="white"/>
<path d="M133.213 75.0072L116.064 90.8696L106.885 80.1481L111.461 76.2001L116.579 82.1764L129.134 70.5434L133.213 75.0072Z" fill="white"/>
<path d="M119.99 97.6768C129.322 97.6858 136.912 90.0729 136.95 80.702C136.987 71.3431 129.456 63.6549 120.07 63.6037C110.671 63.5495 102.778 71.2437 103.016 81.0993C103.239 90.2475 110.702 97.6768 119.99 97.6768ZM119.985 103.285C107.47 103.264 97.4719 93.1464 97.4362 80.7471C97.3988 68.1462 107.352 58.3719 119.276 58.0106C132.194 57.6193 142.584 68.0799 142.531 80.726C142.479 93.1012 132.525 103.258 119.985 103.285Z" fill="white"/>
<path d="M148.679 113.874C147.677 113.852 146.787 113.53 146.062 112.826C144.791 111.6 143.535 110.361 142.277 109.124C139.676 106.569 137.078 104.011 134.479 101.457C134.345 101.323 134.117 101.187 134.112 101.048C134.107 100.898 134.374 100.815 134.521 100.703C136.565 99.194 138.353 97.426 139.855 95.3717C139.998 95.1743 140.071 95.1993 140.227 95.3494C143.5 98.5741 146.777 101.793 150.053 105.015C150.671 105.621 151.293 106.224 151.904 106.839C153.353 108.29 153.365 110.736 151.938 112.27C151.337 112.921 150.683 113.488 149.802 113.722C149.433 113.819 149.061 113.877 148.679 113.874Z" fill="white"/>
</svg>
