<svg width="62" height="40" viewBox="0 0 62 40" fill="none" xmlns="http://www.w3.org/2000/svg">
<path d="M30.9328 14.3854L34.8832 21.8325L33.8689 8.85049L30.9328 14.3854ZM19.9679 7.18731H26.3675L23.1161 1.05783L19.9679 7.18731ZM27.4299 7.18731H33.7011L30.5657 1.04996L27.4299 7.18731ZM34.7515 7.18731H41.1507L38.0024 1.05783L34.7515 7.18731ZM41.2016 7.82001H34.7324L38.3559 14.9116L41.2016 7.82001ZM33.7007 7.82001H27.4175L30.5591 13.7423L33.7007 7.82001ZM26.399 7.82001H19.9169L22.7676 14.9261L26.399 7.82001ZM27.2385 8.82978L26.2333 21.8362L30.1857 14.3854L27.2385 8.82978ZM25.5898 21.9584L26.607 8.79746L23.0792 15.7018L25.5898 21.9584ZM35.5271 21.9605L38.0447 15.6873L34.4941 8.73864L35.5271 21.9605ZM26.8987 6.84131L30.0415 0.690313H23.6357L26.8987 6.84131ZM31.0894 0.690313L34.2261 6.8293L37.4828 0.690313H31.0894ZM35.0175 23.5557L30.5591 15.1511L26.1007 23.5566C26.0634 23.6262 26.0029 23.6838 25.9237 23.7157C25.7476 23.7861 25.5467 23.7004 25.4762 23.5243L19.0994 7.6319C19.0642 7.5424 19.0658 7.43922 19.1127 7.34724L22.7747 0.217545C22.8252 0.0899258 22.95 1.90735e-06 23.0954 1.90735e-06H38.0232V0.00167084C38.1483 0.00167084 38.2684 0.0700245 38.3294 0.188942L41.9963 7.32943C42.0486 7.4181 42.0602 7.52914 42.0191 7.6319L35.6444 23.5172C35.6154 23.593 35.5603 23.6593 35.4828 23.6999C35.3146 23.7886 35.1061 23.724 35.0175 23.5557Z" fill="white"/>
<path fill-rule="evenodd" clip-rule="evenodd" d="M0.381615 40H6.06607C6.17173 40 6.26661 39.9718 6.34368 39.8981C6.41619 39.8289 6.44768 39.7448 6.44768 39.6445C6.44768 39.5438 6.41619 39.4601 6.34368 39.3909C6.26661 39.3172 6.17173 39.289 6.06607 39.289H0.763643V30.3258C0.763643 30.2189 0.733397 30.1269 0.657571 30.0502C0.581331 29.974 0.488931 29.9442 0.381615 29.9442C0.275127 29.9442 0.188113 29.9815 0.112701 30.0569C0.0372896 30.1323 0 30.2193 0 30.3262V39.618C0 39.7249 0.0372896 39.8119 0.112701 39.8873C0.188113 39.9623 0.274712 40 0.381615 40ZM6.55749 35.4364H9.66386C9.77076 35.4364 9.86275 35.4066 9.93941 35.3303C10.0123 35.257 10.0455 35.1712 10.0455 35.0676C10.0455 34.9607 10.0152 34.8683 9.93941 34.7921C9.86316 34.7162 9.76704 34.686 9.66386 34.686H6.55749C6.45721 34.686 6.3615 34.7158 6.29065 34.7896C6.21855 34.8654 6.18872 34.9619 6.18872 35.0676C6.18872 35.1712 6.22186 35.257 6.2952 35.3303C6.36854 35.4037 6.4539 35.4364 6.55749 35.4364ZM11.6851 40H14.0642C14.9829 40 15.8667 39.8065 16.6693 39.3561C17.4292 38.9298 18.0254 38.3322 18.4485 37.5703C18.8951 36.7664 19.0857 35.8826 19.0857 34.9653C19.0857 34.0504 18.896 33.1678 18.4485 32.3673C18.0246 31.6082 17.4275 31.0132 16.6693 30.5877C15.8667 30.1377 14.98 29.9442 14.0642 29.9442H11.6846C11.5806 29.9442 11.4858 29.9744 11.4091 30.0502C11.3333 30.1265 11.303 30.2218 11.303 30.3258V39.618C11.303 39.7224 11.3345 39.819 11.4091 39.8935C11.4837 39.9681 11.5782 40 11.6851 40ZM14.0638 39.342H12.0667V30.6022H14.0638C14.8445 30.6022 15.5949 30.7716 16.2723 31.162C16.922 31.5365 17.43 32.0619 17.7897 32.7199C18.1692 33.4139 18.3349 34.1755 18.3349 34.9657C18.3349 35.755 18.1692 36.517 17.7897 37.2106C17.4292 37.8694 16.9212 38.3965 16.2731 38.7752C15.5965 39.1701 14.8461 39.342 14.0638 39.342ZM20.8679 40H27.0673C27.1743 40 27.2662 39.9698 27.3429 39.8935C27.4158 39.8206 27.449 39.7348 27.449 39.6312C27.449 39.5305 27.4167 39.446 27.345 39.3776C27.2687 39.3051 27.1701 39.2757 27.0673 39.2757H21.2499V35.3208H25.5206C25.6264 35.3208 25.7169 35.2847 25.792 35.2126C25.8657 35.1427 25.9026 35.056 25.9026 34.9524C25.9032 34.8491 25.8677 34.7615 25.7961 34.6897C25.7215 34.6151 25.6246 34.5837 25.5206 34.5837H21.2499V30.668H27.0673C27.173 30.668 27.2687 30.639 27.345 30.5665C27.4167 30.4982 27.449 30.4132 27.449 30.313C27.449 30.2094 27.4158 30.1236 27.3429 30.0502C27.2667 29.9744 27.1714 29.9442 27.0673 29.9442H20.8679C20.7643 29.9442 20.6723 29.9806 20.5969 30.0523C20.5198 30.1261 20.4862 30.221 20.4862 30.3258V39.618C20.4862 39.7216 20.5252 39.8127 20.5989 39.8873C20.6731 39.9611 20.761 40 20.8679 40ZM29.0206 40C29.1283 40 29.2211 39.966 29.2941 39.8894C29.3659 39.8145 29.4021 39.7241 29.4026 39.618V31.4346L35.9771 39.8856C36.0405 39.9768 36.1449 40 36.2506 40C36.3583 40 36.4511 39.9656 36.524 39.8894C36.5959 39.8143 36.632 39.7238 36.6326 39.618V30.3258C36.6326 30.2189 36.6024 30.1269 36.5261 30.0502C36.4503 29.9744 36.3579 29.9442 36.2506 29.9442C36.1448 29.9447 36.0544 29.9808 35.9796 30.0523C35.9029 30.1257 35.8685 30.2218 35.8685 30.3258V38.3956L29.3148 30.0813C29.2356 29.9893 29.142 29.9446 29.0206 29.9446C28.9137 29.9446 28.8213 29.9748 28.7451 30.0507C28.6688 30.1269 28.6386 30.2226 28.6386 30.3262V39.618C28.6386 39.7216 28.6705 39.8194 28.7451 39.8935C28.8196 39.9681 28.9137 40 29.0206 40ZM45.3198 29.9442H38.0107C37.9192 29.9442 37.828 29.9707 37.7613 30.0374C37.695 30.1037 37.6681 30.1907 37.6681 30.286C37.6681 30.3788 37.6954 30.4563 37.7613 30.5222C37.8297 30.5906 37.9146 30.6154 38.0103 30.6154H41.2766V39.618C41.2766 39.7207 41.3143 39.8119 41.3893 39.8873C41.4647 39.9623 41.5518 40 41.6587 40C41.7664 40 41.8588 39.9656 41.9321 39.8894C42.0039 39.8145 42.04 39.7241 42.0403 39.618V30.6154H45.3198C45.4151 30.6154 45.5005 30.5906 45.5689 30.5222C45.6352 30.4563 45.6621 30.3788 45.6621 30.286C45.6621 30.1907 45.6356 30.1037 45.5689 30.0374C45.5026 29.9707 45.4151 29.9442 45.3198 29.9442ZM53.2588 39.4659L49.3544 30.2135C49.2889 30.0382 49.1812 29.9442 48.9906 29.9442C48.7966 29.9442 48.6839 30.0415 48.6114 30.2193L44.7248 39.4452C44.7045 39.4945 44.6958 39.5608 44.6958 39.618C44.6958 39.7238 44.7305 39.8149 44.7998 39.8915C44.8694 39.9677 44.9598 40 45.065 40C45.2378 40 45.3576 39.9428 45.4172 39.7651L46.3371 37.5413H51.6304L52.549 39.7618C52.6236 39.9238 52.7375 40 52.9161 40C53.023 40 53.1117 39.9602 53.1854 39.8869C53.2584 39.8135 53.2981 39.7249 53.2981 39.618C53.2981 39.567 53.2882 39.5173 53.2629 39.473L53.2588 39.4659ZM46.5965 36.9231L48.9906 31.14L51.3847 36.9231H46.5965ZM55.0533 40H60.7369C60.8426 40 60.9396 39.9698 61.0146 39.8981C61.0854 39.8306 61.119 39.7448 61.119 39.6445C61.119 39.5438 61.0858 39.4581 61.0146 39.3909C60.9396 39.3192 60.8389 39.289 60.7369 39.289H55.4353V30.3258C55.4353 30.2189 55.403 30.1244 55.3289 30.0502C55.2547 29.9761 55.1602 29.9442 55.0533 29.9442C54.9464 29.9442 54.8598 29.9815 54.784 30.0569C54.709 30.1323 54.6713 30.2234 54.6713 30.3262V39.618C54.6713 39.7207 54.7111 39.8136 54.7844 39.8873C54.8577 39.9602 54.9464 40 55.0533 40Z" fill="white"/>
</svg>
