<svg width="60" height="60" viewBox="0 0 60 60" fill="none" xmlns="http://www.w3.org/2000/svg">
<circle cx="30" cy="30" r="30" fill="#EBEBEB"/>
<circle cx="30" cy="30" r="22" fill="black"/>
<g clip-path="url(#clip0_265_1786)">
<path d="M21 25C21 24.4696 21.2107 23.9609 21.5858 23.5858C21.9609 23.2107 22.4696 23 23 23H37C37.5304 23 38.0391 23.2107 38.4142 23.5858C38.7893 23.9609 39 24.4696 39 25V35C39 35.5304 38.7893 36.0391 38.4142 36.4142C38.0391 36.7893 37.5304 37 37 37H23C22.4696 37 21.9609 36.7893 21.5858 36.4142C21.2107 36.0391 21 35.5304 21 35V25Z" stroke="white" stroke-width="1.5" stroke-linecap="round" stroke-linejoin="round"/>
<path d="M21 25L30 31L39 25" stroke="white" stroke-width="1.5" stroke-linecap="round" stroke-linejoin="round"/>
</g>
<defs>
<clipPath id="clip0_265_1786">
<rect width="24" height="24" fill="white" transform="translate(18 18)"/>
</clipPath>
</defs>
</svg>
