<svg width="60" height="60" viewBox="0 0 60 60" fill="none" xmlns="http://www.w3.org/2000/svg">
<circle cx="30" cy="30" r="30" fill="#EBEBEB"/>
<circle cx="30" cy="30" r="22" fill="black"/>
<g clip-path="url(#clip0_167_3062)">
<path d="M27 29C27 29.7956 27.3161 30.5587 27.8787 31.1213C28.4413 31.6839 29.2044 32 30 32C30.7956 32 31.5587 31.6839 32.1213 31.1213C32.6839 30.5587 33 29.7956 33 29C33 28.2044 32.6839 27.4413 32.1213 26.8787C31.5587 26.3161 30.7956 26 30 26C29.2044 26 28.4413 26.3161 27.8787 26.8787C27.3161 27.4413 27 28.2044 27 29Z" stroke="white" stroke-width="1.5" stroke-linecap="round" stroke-linejoin="round"/>
<path d="M35.657 34.6567L31.414 38.8997C31.039 39.2743 30.5306 39.4848 30.0005 39.4848C29.4704 39.4848 28.962 39.2743 28.587 38.8997L24.343 34.6567C23.2242 33.5379 22.4623 32.1124 22.1537 30.5606C21.845 29.0087 22.0035 27.4002 22.609 25.9384C23.2145 24.4767 24.2399 23.2272 25.5555 22.3482C26.8711 21.4692 28.4178 21 30 21C31.5822 21 33.1289 21.4692 34.4445 22.3482C35.7601 23.2272 36.7855 24.4767 37.391 25.9384C37.9965 27.4002 38.155 29.0087 37.8463 30.5606C37.5377 32.1124 36.7758 33.5379 35.657 34.6567Z" stroke="white" stroke-width="1.5" stroke-linecap="round" stroke-linejoin="round"/>
</g>
<defs>
<clipPath id="clip0_167_3062">
<rect width="24" height="24" fill="white" transform="translate(18 18)"/>
</clipPath>
</defs>
</svg>
