<svg width="60" height="60" viewBox="0 0 60 60" fill="none" xmlns="http://www.w3.org/2000/svg">
<circle cx="30" cy="30" r="30" fill="#EBEBEB"/>
<circle cx="30" cy="30" r="22" fill="black"/>
<g clip-path="url(#clip0_265_1804)">
<path d="M23 22H27L29 27L26.5 28.5C27.571 30.6715 29.3285 32.429 31.5 33.5L33 31L38 33V37C38 37.5304 37.7893 38.0391 37.4142 38.4142C37.0391 38.7893 36.5304 39 36 39C32.0993 38.763 28.4202 37.1065 25.6568 34.3432C22.8935 31.5798 21.237 27.9007 21 24C21 23.4696 21.2107 22.9609 21.5858 22.5858C21.9609 22.2107 22.4696 22 23 22Z" stroke="white" stroke-width="1.5" stroke-linecap="round" stroke-linejoin="round"/>
<path d="M33 25C33.5304 25 34.0391 25.2107 34.4142 25.5858C34.7893 25.9609 35 26.4696 35 27" stroke="white" stroke-width="1.5" stroke-linecap="round" stroke-linejoin="round"/>
<path d="M33 21C34.5913 21 36.1174 21.6321 37.2426 22.7574C38.3679 23.8826 39 25.4087 39 27" stroke="white" stroke-width="1.5" stroke-linecap="round" stroke-linejoin="round"/>
</g>
<defs>
<clipPath id="clip0_265_1804">
<rect width="24" height="24" fill="white" transform="translate(18 18)"/>
</clipPath>
</defs>
</svg>
