<svg width="60" height="60" viewBox="0 0 60 60" fill="none" xmlns="http://www.w3.org/2000/svg">
<circle cx="30" cy="30" r="30" fill="#EBEBEB"/>
<circle cx="30" cy="30" r="22" fill="black"/>
<g clip-path="url(#clip0_167_4652)">
<path d="M21 30C21 31.1819 21.2328 32.3522 21.6851 33.4442C22.1374 34.5361 22.8003 35.5282 23.636 36.364C24.4718 37.1997 25.4639 37.8626 26.5558 38.3149C27.6478 38.7672 28.8181 39 30 39C31.1819 39 32.3522 38.7672 33.4442 38.3149C34.5361 37.8626 35.5282 37.1997 36.364 36.364C37.1997 35.5282 37.8626 34.5361 38.3149 33.4442C38.7672 32.3522 39 31.1819 39 30C39 28.8181 38.7672 27.6478 38.3149 26.5558C37.8626 25.4639 37.1997 24.4718 36.364 23.636C35.5282 22.8003 34.5361 22.1374 33.4442 21.6851C32.3522 21.2328 31.1819 21 30 21C28.8181 21 27.6478 21.2328 26.5558 21.6851C25.4639 22.1374 24.4718 22.8003 23.636 23.636C22.8003 24.4718 22.1374 25.4639 21.6851 26.5558C21.2328 27.6478 21 28.8181 21 30Z" stroke="white" stroke-width="1.5" stroke-linecap="round" stroke-linejoin="round"/>
<path d="M30 30H33.5" stroke="white" stroke-width="1.5" stroke-linecap="round" stroke-linejoin="round"/>
<path d="M30 25V30" stroke="white" stroke-width="1.5" stroke-linecap="round" stroke-linejoin="round"/>
</g>
<defs>
<clipPath id="clip0_167_4652">
<rect width="24" height="24" fill="white" transform="translate(18 18)"/>
</clipPath>
</defs>
</svg>
